<svg id="Capa_1" enable-background="new 0 0 512.027 512.027" height="512" viewBox="0 0 512.027 512.027" width="512"
  xmlns="http://www.w3.org/2000/svg">
  <g>
    <path fill="#f1faee" d="m511.485 342.829c-8.76-53.206-30.558-126.731-83.905-194.233l34.203-34.203c2.813-2.812 4.394-6.628 4.394-10.606s-1.58-7.794-4.394-10.606l-42.935-42.935c-2.812-2.813-6.628-4.394-10.606-4.394s-7.794 1.58-10.606 4.394l-34.203 34.203c-67.502-53.348-141.027-75.146-194.234-83.906-18.073-2.982-34.685 6.51-41.33 23.604-6.663 17.138-.807 35.397 14.571 45.438 45.088 29.438 89.382 64.24 132.119 103.736l-261.341 261.343c-8.523 8.522-13.217 19.854-13.217 31.907s4.694 23.385 13.225 31.916l.323.323c8.523 8.523 19.855 13.217 31.908 13.217s23.385-4.693 31.908-13.217l261.342-261.341c39.495 42.737 74.297 87.031 103.736 132.119 7.277 11.147 18.872 17.29 31.229 17.29 4.691 0 9.493-.886 14.209-2.719 17.094-6.646 26.579-23.255 23.604-41.33zm-34.475 13.368c-1.794.699-6.307 1.803-9.448-3.01-38.153-58.437-84.945-115.513-139.077-169.644-54.133-54.132-111.209-100.924-169.643-139.077-4.812-3.142-3.708-7.654-3.011-9.448.764-1.965 2.631-5.013 6.863-5.013.509 0 1.053.044 1.632.14 57.957 9.542 141.754 35.628 211.841 105.716 70.088 70.087 96.174 153.885 105.716 211.841.889 5.398-2.672 7.639-4.873 8.495zm-68.769-274.132 21.722 21.722-21.937 21.937c-3.441-3.722-6.986-7.416-10.646-11.076s-7.354-7.205-11.076-10.646zm-250.239 293.683-21.722-21.721 100.224-100.224 21.722 21.721zm-101.85 101.849c-2.857 2.856-6.655 4.43-10.695 4.43s-7.838-1.573-10.703-4.438l-.323-.323c-2.857-2.856-4.43-6.655-4.43-10.695s1.573-7.838 4.43-10.694l80.637-80.637 21.722 21.721zm223.286-223.286-21.722-21.721 38.618-38.618c3.658 3.563 7.306 7.152 10.937 10.784s7.221 7.28 10.784 10.938z"/>
  </g>
</svg>